<?xml version="1.0" encoding="utf-8"?>
<!-- Generator: Adobe Illustrator 26.5.0, SVG Export Plug-In . SVG Version: 6.00 Build 0)  -->
<svg version="1.1" xmlns="http://www.w3.org/2000/svg" xmlns:xlink="http://www.w3.org/1999/xlink" x="0px" y="0px"
	 viewBox="0 0 2000 2000" style="enable-background:new 0 0 2000 2000;" xml:space="preserve">
<style type="text/css">
	.st0{fill:#FFFFFF;}
	.st1{opacity:0;fill:#FFFFFF;}
	.st2{opacity:2.127700e-02;fill:#FEFEFE;}
	.st3{opacity:4.255300e-02;fill:#FDFDFD;}
	.st4{opacity:6.383000e-02;fill:#FCFCFC;}
	.st5{opacity:8.510600e-02;fill:#FBFBFB;}
	.st6{opacity:0.1064;fill:#FAFAFA;}
	.st7{opacity:0.1277;fill:#F9F9FA;}
	.st8{opacity:0.1489;fill:#F8F8F9;}
	.st9{opacity:0.1702;fill:#F7F8F8;}
	.st10{opacity:0.1915;fill:#F6F7F7;}
	.st11{opacity:0.2128;fill:#F5F6F6;}
	.st12{opacity:0.234;fill:#F4F5F5;}
	.st13{opacity:0.2553;fill:#F3F4F4;}
	.st14{opacity:0.2766;fill:#F2F3F3;}
	.st15{opacity:0.2979;fill:#F1F2F2;}
	.st16{opacity:0.3191;fill:#F0F1F1;}
	.st17{opacity:0.3404;fill:#EFF0F0;}
	.st18{opacity:0.3617;fill:#EEEFEF;}
	.st19{opacity:0.383;fill:#EDEEEF;}
	.st20{opacity:0.4043;fill:#ECEDEE;}
	.st21{opacity:0.4255;fill:#EBECED;}
	.st22{opacity:0.4468;fill:#EAEBEC;}
	.st23{opacity:0.4681;fill:#E9EAEB;}
	.st24{opacity:0.4894;fill:#E8E9EA;}
	.st25{opacity:0.5106;fill:#E8E9E9;}
	.st26{opacity:0.5319;fill:#E7E8E8;}
	.st27{opacity:0.5532;fill:#E6E7E7;}
	.st28{opacity:0.5745;fill:#E5E6E6;}
	.st29{opacity:0.5957;fill:#E4E5E5;}
	.st30{opacity:0.617;fill:#E3E4E4;}
	.st31{opacity:0.6383;fill:#E2E3E4;}
	.st32{opacity:0.6596;fill:#E1E2E3;}
	.st33{opacity:0.6809;fill:#E0E1E2;}
	.st34{opacity:0.7021;fill:#DFE0E1;}
	.st35{opacity:0.7234;fill:#DEDFE0;}
	.st36{opacity:0.7447;fill:#DDDEDF;}
	.st37{opacity:0.766;fill:#DCDDDE;}
	.st38{opacity:0.7872;fill:#DBDCDD;}
	.st39{opacity:0.8085;fill:#DADBDC;}
	.st40{opacity:0.8298;fill:#D9DADB;}
	.st41{opacity:0.8511;fill:#D8DADA;}
	.st42{opacity:0.8723;fill:#D7D9D9;}
	.st43{opacity:0.8936;fill:#D6D8D9;}
	.st44{opacity:0.9149;fill:#D5D7D8;}
	.st45{opacity:0.9362;fill:#D4D6D7;}
	.st46{opacity:0.9574;fill:#D3D5D6;}
	.st47{opacity:0.9787;fill:#D2D4D5;}
	.st48{fill:#D1D3D4;}
</style>
<g>
	<circle class="st0" cx="1079.8" cy="616.2" r="311.8"/>
	<path class="st0" d="M1093.3,1045.6h-38.5C827.4,1030.2,647,840.2,647,609V356c0-63.7-50.5-117-114.1-118
		c-65-1.1-118.1,51.3-118.1,116.1V609c0,119.1,30.9,233.4,88.8,333.9c64.6,111.9,97.7,239.2,97.7,368.4V1538h983.9v-0.5
		C1585.2,1265.8,1365,1045.6,1093.3,1045.6z"/>
</g>
<g>
	<ellipse class="st1" cx="1000" cy="1864.3" rx="809.1" ry="73.6"/>
	<ellipse class="st2" cx="1000" cy="1864.3" rx="798.8" ry="72.6"/>
	<ellipse class="st3" cx="1000" cy="1864.3" rx="788.5" ry="71.7"/>
	<ellipse class="st4" cx="1000" cy="1864.3" rx="778.1" ry="70.7"/>
	<ellipse class="st5" cx="1000" cy="1864.3" rx="767.8" ry="69.8"/>
	<ellipse class="st6" cx="1000" cy="1864.3" rx="757.5" ry="68.9"/>
	<ellipse class="st7" cx="1000" cy="1864.3" rx="747.1" ry="67.9"/>
	<ellipse class="st8" cx="1000" cy="1864.3" rx="736.8" ry="67"/>
	<ellipse class="st9" cx="1000" cy="1864.3" rx="726.5" ry="66"/>
	<ellipse class="st10" cx="1000" cy="1864.3" rx="716.1" ry="65.1"/>
	<ellipse class="st11" cx="1000" cy="1864.3" rx="705.8" ry="64.2"/>
	<ellipse class="st12" cx="1000" cy="1864.3" rx="695.5" ry="63.2"/>
	<ellipse class="st13" cx="1000" cy="1864.3" rx="685.2" ry="62.3"/>
	<ellipse class="st14" cx="1000" cy="1864.3" rx="674.8" ry="61.3"/>
	<ellipse class="st15" cx="1000" cy="1864.3" rx="664.5" ry="60.4"/>
	<ellipse class="st16" cx="1000" cy="1864.3" rx="654.2" ry="59.5"/>
	<ellipse class="st17" cx="1000" cy="1864.3" rx="643.8" ry="58.5"/>
	<ellipse class="st18" cx="1000" cy="1864.3" rx="633.5" ry="57.6"/>
	<ellipse class="st19" cx="1000" cy="1864.3" rx="623.2" ry="56.7"/>
	<ellipse class="st20" cx="1000" cy="1864.3" rx="612.9" ry="55.7"/>
	<ellipse class="st21" cx="1000" cy="1864.3" rx="602.5" ry="54.8"/>
	<ellipse class="st22" cx="1000" cy="1864.3" rx="592.2" ry="53.8"/>
	<ellipse class="st23" cx="1000" cy="1864.3" rx="581.9" ry="52.9"/>
	<ellipse class="st24" cx="1000" cy="1864.3" rx="571.5" ry="52"/>
	<ellipse class="st25" cx="1000" cy="1864.3" rx="561.2" ry="51"/>
	<ellipse class="st26" cx="1000" cy="1864.3" rx="550.9" ry="50.1"/>
	<ellipse class="st27" cx="1000" cy="1864.3" rx="540.6" ry="49.1"/>
	<ellipse class="st28" cx="1000" cy="1864.3" rx="530.2" ry="48.2"/>
	<ellipse class="st29" cx="1000" cy="1864.3" rx="519.9" ry="47.3"/>
	<ellipse class="st30" cx="1000" cy="1864.3" rx="509.6" ry="46.3"/>
	<ellipse class="st31" cx="1000" cy="1864.3" rx="499.2" ry="45.4"/>
	<ellipse class="st32" cx="1000" cy="1864.3" rx="488.9" ry="44.4"/>
	<ellipse class="st33" cx="1000" cy="1864.3" rx="478.6" ry="43.5"/>
	<ellipse class="st34" cx="1000" cy="1864.3" rx="468.3" ry="42.6"/>
	<ellipse class="st35" cx="1000" cy="1864.3" rx="457.9" ry="41.6"/>
	<ellipse class="st36" cx="1000" cy="1864.3" rx="447.6" ry="40.7"/>
	<ellipse class="st37" cx="1000" cy="1864.3" rx="437.3" ry="39.8"/>
	<ellipse class="st38" cx="1000" cy="1864.3" rx="426.9" ry="38.8"/>
	<ellipse class="st39" cx="1000" cy="1864.3" rx="416.6" ry="37.9"/>
	<ellipse class="st40" cx="1000" cy="1864.3" rx="406.3" ry="36.9"/>
	<ellipse class="st41" cx="1000" cy="1864.3" rx="395.9" ry="36"/>
	<ellipse class="st42" cx="1000" cy="1864.3" rx="385.6" ry="35.1"/>
	<ellipse class="st43" cx="1000" cy="1864.3" rx="375.3" ry="34.1"/>
	<ellipse class="st44" cx="1000" cy="1864.3" rx="365" ry="33.2"/>
	<ellipse class="st45" cx="1000" cy="1864.3" rx="354.6" ry="32.2"/>
	<ellipse class="st46" cx="1000" cy="1864.3" rx="344.3" ry="31.3"/>
	<ellipse class="st47" cx="1000" cy="1864.3" rx="334" ry="30.4"/>
	<ellipse class="st48" cx="1000" cy="1864.3" rx="323.6" ry="29.4"/>
</g>
</svg>
