<?xml version="1.0" encoding="utf-8"?>
<!-- Generator: Adobe Illustrator 26.5.0, SVG Export Plug-In . SVG Version: 6.00 Build 0)  -->
<svg version="1.1" id="Layer_1" xmlns="http://www.w3.org/2000/svg" xmlns:xlink="http://www.w3.org/1999/xlink" x="0px" y="0px"
	 viewBox="0 0 512 512" style="enable-background:new 0 0 512 512;" xml:space="preserve">
<style type="text/css">
	.st0{fill:#FFFFFF;}
</style>
<g transform="translate(0.000000,512.000000) scale(0.100000,-0.100000)">
	<path class="st0" d="M2335,5105c-273-42-517-172-708-375c-210-223-319-481-334-790c-21-432,191-845,557-1084
		c180-118,353-178,563-195c389-30,721,92,989,365c262,267,379,596,347,974c-28,324-171,603-419,817c-196,168-376,252-625,288
		C2585,5122,2445,5123,2335,5105z M2761,4791c157-40,275-109,407-236c172-163,259-343,282-576c27-276-58-528-245-728
		c-116-124-287-229-432-266c-215-54-471-31-655,60c-251,124-437,356-505,630c-26,105-23,342,6,450c77,290,329,559,609,650
		C2380,4824,2607,4831,2761,4791z"/>
	<path class="st0" d="M1427,2639c-153-16-311-74-436-158c-312-212-514-686-561-1316c-26-354-5-529,86-712c50-102,145-214,242-286
		c74-54,198-110,307-138l90-24h1400h1400l90,23c316,83,537,296,616,597c41,155,36,525-12,817c-105,650-371,1040-792,1162
		c-96,28-268,49-319,39c-49-9-117-45-271-144c-166-107-192-121-316-166c-146-53-255-74-390-74c-140,0-248,20-390,70
		c-134,48-140,51-350,184c-110,70-192,115-224,124C1541,2651,1541,2651,1427,2639z M1687,2244c188-121,267-160,432-214
		c430-141,869-73,1283,198c187,123,183,121,262,111c363-46,590-351,686-924c39-236,51-565,25-690c-42-201-178-343-386-402
		c-60-17-139-18-1434-18c-1298,0-1373,1-1435,18c-149,42-278,144-338,267c-52,106-65,195-57,410c7,217,17,318,52,495
		c26,138,87,334,130,419c129,256,304,396,531,425c37,5,71,9,75,10C1517,2349,1595,2302,1687,2244z"/>
</g>
</svg>
